<svg width="555.4217041015625px" height="140.8000061035156px" xmlns="http://www.w3.org/2000/svg" viewBox="-27.710852050781227 4.599996948242193 555.4217041015625 140.8000061035156" style="background: rgba(0, 0, 0, 0);" preserveAspectRatio="xMidYMid"><defs><linearGradient id="editing-shiny-gradient" x1="0.04322727117869957" x2="0.9567727288213004" y1="0.2966316784620999" y2="0.7033683215379001" gradientUnits="objectBoundingBox"><stop offset="0.0" stop-color="#ffb200"></stop><stop offset="0.5" stop-color="#e10057"></stop><stop offset="1.0" stop-color="#5A1A80"></stop></linearGradient><linearGradient id="editing-shiny-gradient2" x1="0" x2="0" y1="0" y2="1"><stop offset="0.2" stop-color="#fff" stop-opacity="0.8"></stop><stop offset="0.8" stop-color="#fff" stop-opacity="0"></stop></linearGradient><filter id="editing-shiny2" x="-100%" y="-100%" width="300%" height="300%"><feMorphology operator="erode" radius="2"></feMorphology></filter><filter id="editing-shiny" x="-100%" y="-100%" width="300%" height="300%"><feFlood flood-color="#fff" result="flood"></feFlood><feConvolveMatrix in="SourceGraphic" result="conv" order="8,8" divisor="1" kernelMatrix="0 0 0 0 0 0 0 0 0 0 0 1 1 0 0 0 0 0 0 1 1 0 0 0 0 0 1 0 0 1 0 0 0 0 1 0 0 1 0 0 0 1 0 0 0 0 1 0 0 1 1 0 0 1 1 0 0 0 0 1 1 0 0 0 "></feConvolveMatrix><feOffset dx="0" dy="4" in="conv" result="offset"></feOffset><feComposite operator="in" in="flood" in2="offset" result="comp"></feComposite><feGaussianBlur in="offset" stdDeviation="3" result="shadow"></feGaussianBlur><feColorMatrix in="shadow" type="matrix" values="0.7 0 0 0 0  0 0.7 0 0 0  0 0 0.7 0 0  0 0 0 0.3 0" result="dark-shadow"></feColorMatrix><feOffset dx="0" dy="4" in="dark-shadow" result="offset-shadow"></feOffset><feOffset dx="0" dy="2" in="conv" result="offset-2"></feOffset><feComposite operator="out" in="offset" in2="offset-2" result="edge-diff"></feComposite><feGaussianBlur in="edge-diff" stdDeviation="1" result="edge-blur"></feGaussianBlur><feColorMatrix in="edge-blur" result="edge-shadow" type="matrix" values="0 0 0 0 0  0 0 0 0 0  0 0 0 0 0  0 0 0 0.5 0"></feColorMatrix><feComposite operator="in" in="edge-shadow" in2="offset" result="edge-shadow-in"></feComposite><feOffset dx="0" dy="1" in="edge-shadow-in" result="edge-shadow-final"></feOffset><feMerge result="out"><feMergeNode in="offset-shadow"></feMergeNode><feMergeNode in="comp"></feMergeNode><feMergeNode in="edge-shadow-final"></feMergeNode><feMergeNode in="SourceGraphic"></feMergeNode></feMerge></filter></defs><g filter="url(#editing-shiny)"><g transform="translate(53.145803809165955, 108.72499465942383)"><path d="M73.70-46.51L74.27-46.58L74.27-46.58Q74.98-46.58 74.98-46.22L74.98-46.22L74.98-46.22Q74.98-45.72 74.20-44.66L74.20-44.66L74.20-44.66Q66.67-34.79 57.97-20.66L57.97-20.66L57.97-20.66Q49.27-6.53 45.94 1.35L45.94 1.35L45.94 1.35Q45.37 2.56 45.01 1.92L45.01 1.92L45.01 1.92Q44.94 1.70 44.94 1.14L44.94 1.14L44.94 1.14Q44.94-1.78 52.65-14.77L52.65-14.77L52.65-14.77Q60.35-27.76 66.63-37.13L66.63-37.13L66.63-37.13Q72.92-46.51 73.70-46.51L73.70-46.51ZM45.23-39.90L45.87-39.97L45.87-39.97Q46.51-39.97 46.51-39.62L46.51-39.62L46.51-39.62Q46.51-39.12 45.72-38.06L45.72-38.06L45.72-38.06Q39.97-30.39 33.44-20.38L33.44-20.38L33.44-20.38Q36.78-20.16 40.04-19.53L40.04-19.53L40.04-19.53Q50.69-17.32 50.69-12.71L50.69-12.71L50.69-12.71Q50.69-12.43 50.55-12.43L50.55-12.43L50.55-12.43Q50.41-12.43 50.27-12.78L50.27-12.78L50.27-12.78Q49.56-14.56 42.46-15.19L42.46-15.19L42.46-15.19Q40.33-15.41 37.28-15.41L37.28-15.41L37.28-15.41Q34.22-15.41 29.96-14.98L29.96-14.98L29.96-14.98Q19.45 1.70 15.98 9.94L15.98 9.94L15.98 9.94Q15.62 10.72 15.30 10.72L15.30 10.72L15.30 10.72Q14.98 10.72 14.98 10.01L14.98 10.01L14.98 10.01Q14.98 6.46 27.97-14.84L27.97-14.84L27.97-14.84Q23.86-14.27 21.94-13.92L21.94-13.92L21.94-13.92Q9.44-11.72 5.47-7.10L5.47-7.10L5.47-7.10Q4.26-5.61 4.26-4.33L4.26-4.33L4.26-4.33Q4.26-3.05 5.68-1.92L5.68-1.92L5.68-1.92Q6.11-1.63 5.54-1.63L5.54-1.63L4.90-1.85L4.90-1.85Q1.85-4.19 1.85-7.31L1.85-7.31L1.85-7.31Q1.85-10.37 4.76-13.28L4.76-13.28L4.76-13.28Q9.02-17.54 19.31-19.38L19.31-19.38L19.31-19.38Q25.49-20.45 30.89-20.45L30.89-20.45L30.89-20.45Q31.17-20.45 31.52-20.45L31.52-20.45L31.52-20.45Q44.02-39.90 45.23-39.90L45.23-39.90ZM70.15-1.21L70.15-1.21L70.15-1.21Q65.39 1.21 61.84 1.21L61.84 1.21L61.84 1.21Q58.86 1.21 57.79-0.78L57.79-0.78L57.79-0.78Q57.23-1.78 57.23-3.05L57.23-3.05L57.23-3.05Q57.23-5.96 58.58-8.73L58.58-8.73L58.58-8.73Q57.65-7.81 56.80-7.24L56.80-7.24L56.80-7.24Q56.09-6.60 56.09-7.38L56.09-7.38L56.09-7.38Q56.09-7.88 57.33-8.95L57.33-8.95L57.33-8.95Q58.58-10.01 61.13-12.53L61.13-12.53L61.13-12.53Q63.69-15.05 65.18-16.33L65.18-16.33L65.18-16.33Q69.51-19.95 74.34-19.95L74.34-19.95L74.34-19.95Q76.11-19.95 77.96-19.03L77.96-19.03L77.96-19.03Q80.66-17.75 80.66-14.34L80.66-14.34L80.66-14.34Q80.66-10.22 76.54-5.89L76.54-5.89L76.54-5.89Q74.91-4.05 71.99-2.20L71.99-2.20L71.99-2.20Q77.82-3.12 84.35-9.23L84.35-9.23L84.35-9.23Q84.70-9.51 84.99-9.48L84.99-9.48L84.99-9.48Q85.27-9.44 85.27-9.16L85.27-9.16L85.27-9.16Q85.27-8.88 84.99-8.59L84.99-8.59L84.99-8.59Q77.18-1.21 70.43-1.21L70.43-1.21L70.43-1.21Q70.29-1.21 70.15-1.21ZM77.04-8.66L77.04-8.66L77.04-8.66Q78.81-11.36 78.81-13.24L78.81-13.24L78.81-13.24Q78.81-15.12 77.18-16.12L77.18-16.12L77.18-16.12Q76.25-16.90 75.05-16.90L75.05-16.90L75.05-16.90Q70.72-16.90 67.06-13.49L67.06-13.49L67.06-13.49Q63.40-10.08 62.20-6.25L62.20-6.25L62.20-6.25Q61.70-4.90 61.70-3.44L61.70-3.44L61.70-3.44Q61.70-1.99 62.80-1.38L62.80-1.38L62.80-1.38Q63.90-0.78 65.25-0.78L65.25-0.78L65.25-0.78Q66.60-0.78 69.15-2.13L69.15-2.13L69.15-2.13Q69.01-2.13 68.73-2.27L68.73-2.27L68.73-2.27Q67.88-2.70 67.88-3.41L67.88-3.41L67.88-3.41Q67.88-5.89 70.65-8.45L70.65-8.45L70.65-8.45Q72.63-10.22 74.69-10.22L74.69-10.22L74.69-10.22Q76.75-10.22 77.04-8.66ZM89.46-2.91L89.46-2.91L89.46-2.91Q89.46-0.99 91.38-0.99L91.38-0.99L91.38-0.99Q92.51-0.99 94.96-1.92L94.96-1.92L94.96-1.92Q97.41-2.84 101.32-5.96L101.32-5.96L101.32-5.96Q105.22-9.09 106.57-10.47L106.57-10.47L106.57-10.47Q107.92-11.86 108.20-11.82L108.20-11.82L108.20-11.82Q108.49-11.79 108.42-11.40L108.42-11.40L108.42-11.40Q108.35-11.01 108.06-10.72L108.06-10.72L108.06-10.72Q102.03-4.54 98.05-1.85L98.05-1.85L98.05-1.85Q94.08 0.85 90.67 0.85L90.67 0.85L90.67 0.85Q87.76 0.85 86.62-0.50L86.62-0.50L86.62-0.50Q85.48-1.85 85.48-3.62L85.48-3.62L85.48-3.62Q85.48-6.82 87.76-11.29L87.76-11.29L87.76-11.29Q83.64-6.89 83.64-8.45L83.64-8.45L83.64-8.45Q83.64-8.73 84.06-9.09L84.06-9.09L84.06-9.09Q87.40-11.79 91.24-16.90L91.24-16.90L91.24-16.90Q98.26-26.06 102.24-33.02L102.24-33.02L102.24-33.02Q102.95-34.36 102.95-35.00L102.95-35.00L102.95-35.00Q102.95-36.49 101.32-35.57L101.32-35.57L101.32-35.57Q99.47-34.65 99.33-34.86L99.33-34.86L99.33-34.86Q99.19-35.07 99.54-35.43L99.54-35.43L99.54-35.43Q101.25-36.71 104.23-37.84L104.23-37.84L104.23-37.84Q107.21-38.98 109.13-39.05L109.13-39.05L109.13-39.05Q112.11-39.05 112.11-37.20L112.11-37.20L112.11-37.20Q112.11-36.14 111.08-34.36L111.08-34.36L111.08-34.36Q110.05-32.59 105.19-27.30L105.19-27.30L105.19-27.30Q100.32-22.01 99.26-20.66L99.26-20.66L99.26-20.66Q91.95-11.08 89.96-5.40L89.96-5.40L89.96-5.40Q89.46-3.91 89.46-2.91ZM131.07-10.93L131.07-10.93L131.07-10.93Q130.29-10.01 129.47-8.95L129.47-8.95L129.47-8.95Q128.65-7.88 127.41-6.04L127.41-6.04L127.41-6.04Q126.17-4.19 126.17-2.91L126.17-2.91L126.17-2.91Q126.17-1.63 127.27-1.63L127.27-1.63L127.27-1.63Q128.37-1.63 130.85-2.98L130.85-2.98L130.85-2.98Q135.82-5.82 141.86-11.50L141.86-11.50L141.86-11.50Q142.57-12.21 142.78-11.72L142.78-11.72L142.78-11.72Q142.78-11.64 142.78-11.43L142.78-11.43L142.78-11.43Q142.78-11.22 142.50-10.93L142.50-10.93L142.50-10.93Q130.29 0.57 124.75 0.57L124.75 0.57L124.75 0.57Q123.11 0.57 122.01-0.53L122.01-0.53L122.01-0.53Q120.91-1.63 120.91-3.12L120.91-3.12L120.91-3.12Q120.91-4.62 122.19-7.67L122.19-7.67L122.19-7.67Q119.00-3.69 115.34-1.53L115.34-1.53L115.34-1.53Q111.68 0.64 109.62 0.64L109.62 0.64L109.62 0.64Q107.57 0.64 106.11-0.60L106.11-0.60L106.11-0.60Q104.65-1.85 104.65-3.69L104.65-3.69L104.65-3.69Q104.65-8.95 109.34-13.99L109.34-13.99L109.34-13.99Q112.89-17.75 118.14-19.31L118.14-19.31L118.14-19.31Q120.49-20.09 122.72-20.09L122.72-20.09L122.72-20.09Q124.96-20.09 127.05-18.85L127.05-18.85L127.05-18.85Q129.15-17.61 129.72-15.90L129.72-15.90L129.72-15.90Q131.85-15.90 132.77-14.34L132.77-14.34L132.77-14.34Q132.91-14.13 132.91-13.63L132.91-13.63L132.91-13.63Q132.91-13.14 132.38-12.50L132.38-12.50L132.38-12.50Q131.85-11.86 131.07-10.93ZM125.88-17.96L125.88-17.96L125.88-17.96Q124.39-17.96 122.33-17.04L122.33-17.04L122.33-17.04Q118.71-15.48 115.45-11.64L115.45-11.64L115.45-11.64Q110.26-5.54 110.26-2.70L110.26-2.70L110.26-2.70Q110.26-1.21 111.47-1.21L111.47-1.21L111.47-1.21Q112.46-1.21 114.77-2.49L114.77-2.49L114.77-2.49Q117.08-3.76 120.84-7.53L120.84-7.53L120.84-7.53Q121.06-7.74 122.48-9.09L122.48-9.09L122.48-9.09Q123.90-10.44 124.89-11.43L124.89-11.43L124.89-11.43Q128.23-14.91 128.23-16.44L128.23-16.44L128.23-16.44Q128.23-17.96 125.88-17.96ZM227.63 6.32L227.63 6.32L227.63 6.32Q227.77 6.39 227.77 6.60L227.77 6.60L227.77 6.60Q227.63 7.10 227.20 6.82L227.20 6.82L227.20 6.82Q221.02 2.49 221.02-5.89L221.02-5.89L221.02-5.89Q221.02-9.37 222.41-13.31L222.41-13.31L222.41-13.31Q223.79-17.25 227.34-22.79L227.34-22.79L227.34-22.79Q230.89-28.33 234.23-32.38L234.23-32.38L234.23-32.38Q237.57-36.42 240.65-39.94L240.65-39.94L240.65-39.94Q243.74-43.45 243.89-43.74L243.89-43.74L243.89-43.74Q244.74-45.01 245.02-43.45L245.02-43.45L245.02-43.45Q245.09-42.96 245.09-42.32L245.09-42.32L245.09-42.32Q245.09-41.68 244.74-41.18L244.74-41.18L244.74-41.18Q240.34-35.78 236.22-28.97L236.22-28.97L236.22-28.97Q229.33-17.47 226.35-8.02L226.35-8.02L226.35-8.02Q225.21-4.26 225.21-0.21L225.21-0.21L225.21-0.21Q225.21 3.83 227.63 6.32ZM168.55-18.53L168.55-18.53L168.55-18.53Q180.20-23.36 196.60-23.36L196.60-23.36L196.60-23.36Q204.69-23.36 212.79-20.80L212.79-20.80L212.79-20.80Q214.70-22.79 218.47-26.73L218.47-26.73L218.47-26.73Q222.23-30.67 224.43-32.94L224.43-32.94L224.43-32.94Q230.82-39.55 234.87-42.67L234.87-42.67L234.87-42.67Q241.68-48.00 247.36-48.00L247.36-48.00L247.36-48.00Q249.92-48.00 252.05-47.18L252.05-47.18L252.05-47.18Q254.18-46.36 254.61-45.90L254.61-45.90L254.61-45.90Q255.03-45.44 255.03-45.37L255.03-45.37L255.03-45.37Q255.03-45.30 254.89-45.12L254.89-45.12L254.89-45.12Q254.75-44.94 254.46-45.30L254.46-45.30L254.46-45.30Q253.12-46.58 249.21-46.58L249.21-46.58L249.21-46.58Q242.61-46.58 235.29-40.83L235.29-40.83L235.29-40.83Q230.04-36.57 226.56-33.05L226.56-33.05L226.56-33.05Q223.08-29.54 219.28-25.60L219.28-25.60L219.28-25.60Q215.49-21.66 214.14-20.31L214.14-20.31L214.14-20.31Q221.24-17.68 221.88-13.42L221.88-13.42L221.88-13.42Q221.95-12.99 221.84-12.85L221.84-12.85L221.84-12.85Q221.73-12.71 221.56-12.85L221.56-12.85L221.56-12.85Q221.38-12.99 221.31-13.28L221.31-13.28L221.31-13.28Q220.74-14.63 217.33-15.41L217.33-15.41L217.33-15.41Q214.28-16.12 210.30-16.47L210.30-16.47L210.30-16.47Q195.89-2.56 184.81 1.21L184.81 1.21L184.81 1.21Q178.78 3.34 173.38 3.34L173.38 3.34L173.38 3.34Q163.73 3.34 160.00 0.46L160.00 0.46L160.00 0.46Q156.27-2.41 156.27-5.89L156.27-5.89L156.27-5.89Q156.27-7.24 156.77-8.66L156.77-8.66L156.77-8.66Q158.90-14.48 168.55-18.53ZM204.13-16.76L204.13-16.76L204.13-16.76Q194.68-16.76 184.25-14.77L184.25-14.77L184.25-14.77Q168.20-11.93 163.37-6.32L163.37-6.32L163.37-6.32Q161.88-4.54 161.88-2.98L161.88-2.98L161.88-2.98Q161.88-1.14 163.87 0.36L163.87 0.36L163.87 0.36Q166.21 2.13 172.00 2.13L172.00 2.13L172.00 2.13Q177.78 2.13 184.53 0.21L184.53 0.21L184.53 0.21Q194.61-2.91 208.53-16.61L208.53-16.61L208.53-16.61Q206.33-16.76 204.13-16.76ZM264.40-15.83L264.40-15.83L264.40-15.83Q264.40-13.21 259.93-7.17L259.93-7.17L259.93-7.17Q257.23-3.55 257.23-2.70L257.23-2.70L257.23-2.70Q257.23-1.85 258.12-1.85L258.12-1.85L258.12-1.85Q259.01-1.85 260.64-2.91L260.64-2.91L260.64-2.91Q264.69-5.68 268.74-9.59L268.74-9.59L268.74-9.59Q269.30-10.15 269.52-9.87L269.52-9.87L269.52-9.87Q269.73-9.59 269.73-9.44L269.73-9.44L269.73-9.44Q269.73-9.30 268.17-7.81L268.17-7.81L268.17-7.81Q266.61-6.32 264.72-4.69L264.72-4.69L264.72-4.69Q262.84-3.05 260.00-1.31L260.00-1.31L260.00-1.31Q257.16 0.43 255.32 0.43L255.32 0.43L255.32 0.43Q251.48 0.43 251.48-2.98L251.48-2.98L251.48-2.98Q251.48-4.19 251.91-5.82L251.91-5.82L251.91-5.82Q252.83-8.59 259.93-16.54L259.93-16.54L259.93-16.54Q260.85-17.54 260.85-18.11L260.85-18.11L260.85-18.11Q260.85-18.67 259.43-18.67L259.43-18.67L259.43-18.67Q258.01-18.67 254.96-16.19L254.96-16.19L254.96-16.19Q253.90-15.34 252.33-13.67L252.33-13.67L252.33-13.67Q250.77-12.00 248.68-8.31L248.68-8.31L248.68-8.31Q246.58-4.62 245.59-1.78L245.59-1.78L245.59-1.78Q245.16-0.50 243.89-0.50L243.89-0.50L243.89-0.50Q243.60-0.50 243.18-0.57L243.18-0.57L243.18-0.57Q241.83-0.92 242.11-1.85L242.11-1.85L242.11-1.85Q247.65-11.72 248.71-14.20L248.71-14.20L248.71-14.20Q249.78-16.69 249.78-17.75L249.78-17.75L249.78-17.75Q249.78-18.82 248.93-18.82L248.93-18.82L248.93-18.82Q245.16-18.82 238.13-6.53L238.13-6.53L238.13-6.53Q235.58-2.56 234.02-0.85L234.02-0.85L234.02-0.85Q232.45 0.85 231.18 0.85L231.18 0.85L231.18 0.85Q231.03 0.85 230.89 0.85L230.89 0.85L230.89 0.85Q229.05 0.85 227.27-0.64L227.27-0.64L227.27-0.64Q227.70-1.28 229.33-3.41L229.33-3.41L229.33-3.41Q232.95-7.81 235.65-11.93L235.65-11.93L235.65-11.93Q232.60-8.88 230.47-7.17L230.47-7.17L230.47-7.17Q229.76-6.60 229.65-7.10L229.65-7.10L229.65-7.10Q229.54-7.60 229.97-7.99L229.97-7.99L229.97-7.99Q230.40-8.38 231.39-9.27L231.39-9.27L231.39-9.27Q232.38-10.15 232.70-10.44L232.70-10.44L232.70-10.44Q233.02-10.72 233.91-11.54L233.91-11.54L233.91-11.54Q234.80-12.35 235.22-12.85L235.22-12.85L235.22-12.85Q237.21-15.19 238.13-16.83L238.13-16.83L238.13-16.83Q238.49-17.68 238.45-18.50L238.45-18.50L238.45-18.50Q238.42-19.31 238.10-19.56L238.10-19.56L238.10-19.56Q237.78-19.81 237.85-20.16L237.85-20.16L237.85-20.16Q237.85-20.73 238.42-20.73L238.42-20.73L238.42-20.73Q238.70-20.73 239.06-20.59L239.06-20.59L239.06-20.59Q241.26-19.60 241.26-16.26L241.26-16.26L241.26-16.26Q241.26-14.27 240.48-11.93L240.48-11.93L240.48-11.93Q241.90-14.13 243.53-16.26L243.53-16.26L243.53-16.26Q246.44-20.02 249.35-20.02L249.35-20.02L249.35-20.02Q251.34-20.02 251.34-17.75L251.34-17.75L251.34-17.75Q251.34-15.62 248.36-10.15L248.36-10.15L248.36-10.15Q251.34-13.99 252.97-15.76L252.97-15.76L252.97-15.76Q256.74-19.67 260.22-19.67L260.22-19.67L260.22-19.67Q263.91-19.67 264.40-16.47L264.40-16.47L264.40-16.47Q264.40-16.12 264.40-15.83ZM282.44-21.66L282.44-21.66L282.44-21.66Q281.66-22.29 281.80-23.50L281.80-23.50L281.80-23.50Q281.94-24.71 283.08-26.06L283.08-26.06L283.08-26.06Q284.21-27.41 286.13-27.41L286.13-27.41L286.13-27.41Q286.70-27.41 287.34-26.87L287.34-26.87L287.34-26.87Q287.98-26.34 287.83-25.10L287.83-25.10L287.83-25.10Q287.69-23.86 286.70-22.76L286.70-22.76L286.70-22.76Q285.70-21.66 284.46-21.34L284.46-21.34L284.46-21.34Q283.22-21.02 282.44-21.66ZM281.52-17.89L281.52-17.89L281.52-17.89Q278.60-14.91 276.65-10.33L276.65-10.33L276.65-10.33Q274.70-5.75 274.70-3.91L274.70-3.91L274.70-3.91Q274.70-2.06 276.15-2.06L276.15-2.06L276.15-2.06Q277.61-2.06 280.98-4.19L280.98-4.19L280.98-4.19Q284.36-6.32 288.69-10.22L288.69-10.22L288.69-10.22Q289.61-11.08 289.61-10.01L289.61-10.01L289.61-10.01Q289.61-9.87 289.47-9.73L289.47-9.73L289.47-9.73Q286.06-6.75 283.72-4.83L283.72-4.83L283.72-4.83Q281.37-2.91 278.14-1.17L278.14-1.17L278.14-1.17Q274.91 0.57 272.85 0.57L272.85 0.57L272.85 0.57Q270.30 0.57 269.05-0.57L269.05-0.57L269.05-0.57Q267.81-1.70 267.81-3.05L267.81-3.05L267.81-3.05Q267.81-5.61 268.74-7.10L268.74-7.10L268.74-7.10Q269.66-8.59 271.86-11.22L271.86-11.22L271.86-11.22Q271.08-10.58 269.41-9.09L269.41-9.09L269.41-9.09Q267.74-7.60 267.10-7.10L267.10-7.10L267.10-7.10Q266.46-6.60 266.46-7.38L266.46-7.38L266.46-7.38Q266.46-7.88 267.60-8.80L267.60-8.80L267.60-8.80Q268.74-9.73 272.53-13.49L272.53-13.49L272.53-13.49Q276.33-17.25 277.72-17.96L277.72-17.96L277.72-17.96Q279.10-18.67 279.99-18.67L279.99-18.67L279.99-18.67Q280.88-18.67 281.30-18.42L281.30-18.42L281.30-18.42Q281.73-18.18 281.52-17.89ZM280.81 19.45L280.81 19.45L280.81 19.45Q274.63 19.45 270.55 16.76L270.55 16.76L270.55 16.76Q266.46 14.06 266.46 9.09L266.46 9.09L266.46 9.09Q266.46 8.80 266.68 8.80L266.68 8.80L266.68 8.80Q267.17 8.80 267.32 9.37L267.32 9.37L267.32 9.37Q267.95 12.99 270.79 15.62L270.79 15.62L270.79 15.62Q272.07 16.83 274.31 17.61L274.31 17.61L274.31 17.61Q276.55 18.39 278.04 18.39L278.04 18.39L278.04 18.39Q279.53 18.39 279.95 18.39L279.95 18.39L279.95 18.39Q287.83 17.96 293.73 10.44L293.73 10.44L293.73 10.44Q296.50 6.89 298.63 3.37L298.63 3.37L298.63 3.37Q300.76-0.14 303.24-4.47L303.24-4.47L303.24-4.47Q305.73-8.80 307.43-11.08L307.43-11.08L307.43-11.08Q305.23-8.59 301.89-5.40L301.89-5.40L301.89-5.40Q298.56-2.20 296.14-0.78L296.14-0.78L296.14-0.78Q293.73 0.64 291.67 0.64L291.67 0.64L291.67 0.64Q289.61 0.64 288.15-0.60L288.15-0.60L288.15-0.60Q286.70-1.85 286.70-3.69L286.70-3.69L286.70-3.69Q286.70-8.95 291.38-13.99L291.38-13.99L291.38-13.99Q294.93-17.75 300.19-19.31L300.19-19.31L300.19-19.31Q302.53-20.09 304.77-20.09L304.77-20.09L304.77-20.09Q307.00-20.09 309.10-18.85L309.10-18.85L309.10-18.85Q311.19-17.61 311.76-15.90L311.76-15.90L311.76-15.90Q312.90-15.90 314.25-14.95L314.25-14.95L314.25-14.95Q315.60-13.99 315.60-13.56L315.60-13.56L315.60-13.56Q315.60-13.14 315.03-12.85L315.03-12.85L315.03-12.85Q312.76-11.72 307.86-2.91L307.86-2.91L307.86-2.91Q303.10 5.54 296.71 12.21L296.71 12.21L296.71 12.21Q293.51 15.55 289.29 17.50L289.29 17.50L289.29 17.50Q285.07 19.45 280.81 19.45ZM291.81-2.84L291.81-2.84L291.81-2.84Q291.81-1.21 293.51-1.21L293.51-1.21L293.51-1.21Q294.86-1.21 296.85-2.70L296.85-2.70L296.85-2.70Q301.68-5.89 306.93-12.00L306.93-12.00L306.93-12.00Q309.35-14.77 309.35-16.33L309.35-16.33L309.35-16.33Q309.35-16.90 308.96-17.36L308.96-17.36L308.96-17.36Q308.57-17.82 307.29-17.82L307.29-17.82L307.29-17.82Q306.01-17.82 303.21-16.33L303.21-16.33L303.21-16.33Q300.40-14.84 297.45-11.82L297.45-11.82L297.45-11.82Q294.51-8.80 293.16-6.43L293.16-6.43L293.16-6.43Q291.81-4.05 291.81-2.84ZM329.09-1.21L329.09-1.21L329.09-1.21Q324.33 1.21 320.78 1.21L320.78 1.21L320.78 1.21Q317.80 1.21 316.73-0.78L316.73-0.78L316.73-0.78Q316.16-1.78 316.16-3.05L316.16-3.05L316.16-3.05Q316.16-5.96 317.51-8.73L317.51-8.73L317.51-8.73Q316.59-7.81 315.74-7.24L315.74-7.24L315.74-7.24Q315.03-6.60 315.03-7.38L315.03-7.38L315.03-7.38Q315.03-7.88 316.27-8.95L316.27-8.95L316.27-8.95Q317.51-10.01 320.07-12.53L320.07-12.53L320.07-12.53Q322.62-15.05 324.12-16.33L324.12-16.33L324.12-16.33Q328.45-19.95 333.27-19.95L333.27-19.95L333.27-19.95Q335.05-19.95 336.90-19.03L336.90-19.03L336.90-19.03Q339.59-17.75 339.59-14.34L339.59-14.34L339.59-14.34Q339.59-10.22 335.48-5.89L335.48-5.89L335.48-5.89Q333.84-4.05 330.93-2.20L330.93-2.20L330.93-2.20Q336.75-3.12 343.29-9.23L343.29-9.23L343.29-9.23Q343.64-9.51 343.92-9.48L343.92-9.48L343.92-9.48Q344.21-9.44 344.21-9.16L344.21-9.16L344.21-9.16Q344.21-8.88 343.92-8.59L343.92-8.59L343.92-8.59Q336.11-1.21 329.37-1.21L329.37-1.21L329.37-1.21Q329.23-1.21 329.09-1.21ZM335.97-8.66L335.97-8.66L335.97-8.66Q337.75-11.36 337.75-13.24L337.75-13.24L337.75-13.24Q337.75-15.12 336.11-16.12L336.11-16.12L336.11-16.12Q335.19-16.90 333.98-16.90L333.98-16.90L333.98-16.90Q329.65-16.90 326.00-13.49L326.00-13.49L326.00-13.49Q322.34-10.08 321.13-6.25L321.13-6.25L321.13-6.25Q320.64-4.90 320.64-3.44L320.64-3.44L320.64-3.44Q320.64-1.99 321.74-1.38L321.74-1.38L321.74-1.38Q322.84-0.78 324.19-0.78L324.19-0.78L324.19-0.78Q325.54-0.78 328.09-2.13L328.09-2.13L328.09-2.13Q327.95-2.13 327.67-2.27L327.67-2.27L327.67-2.27Q326.81-2.70 326.81-3.41L326.81-3.41L326.81-3.41Q326.81-5.89 329.58-8.45L329.58-8.45L329.58-8.45Q331.57-10.22 333.63-10.22L333.63-10.22L333.63-10.22Q335.69-10.22 335.97-8.66ZM338.95-3.91L338.95-3.91L338.95-3.91Q338.88-3.98 338.88-4.12L338.88-4.12L338.88-4.12Q338.88-4.26 339.13-4.26L339.13-4.26L339.13-4.26Q339.38-4.26 339.45-3.98L339.45-3.98L339.45-3.98Q340.73-1.14 343.64-1.14L343.64-1.14L343.64-1.14Q347.26-1.14 349.96-4.69L349.96-4.69L349.96-4.69Q351.95-7.31 353.47-10.19L353.47-10.19L353.47-10.19Q355.00-13.06 356.03-14.77L356.03-14.77L356.03-14.77Q357.06-16.47 359.22-18.60L359.22-18.60L359.22-18.60Q361.39-20.73 363.17-21.23L363.17-21.23L363.17-21.23Q362.74-21.44 361.75-21.44L361.75-21.44L361.75-21.44Q360.75-21.44 358.02-19.99L358.02-19.99L358.02-19.99Q355.28-18.53 352.59-16.29L352.59-16.29L352.59-16.29Q349.89-14.06 346.76-11.22L346.76-11.22L346.76-11.22Q343.64-8.38 343.00-7.88L343.00-7.88L343.00-7.88Q342.36-7.38 342.22-7.88L342.22-7.88L342.22-7.88Q342.08-8.38 342.58-8.80L342.58-8.80L342.58-8.80Q344.42-10.37 347.90-13.67L347.90-13.67L347.90-13.67Q351.38-16.97 353.19-18.50L353.19-18.50L353.19-18.50Q355.00-20.02 357.27-21.12L357.27-21.12L357.27-21.12Q359.54-22.22 360.68-22.22L360.68-22.22L360.68-22.22Q363.52-22.22 364.16-21.23L364.16-21.23L364.16-21.23Q362.31-20.45 361.14-17.11L361.14-17.11L361.14-17.11Q359.97-13.77 358.51-9.37L358.51-9.37L358.51-9.37Q357.06-4.97 354.86-2.49L354.86-2.49L354.86-2.49Q356.70-3.20 360.57-5.79L360.57-5.79L360.57-5.79Q364.44-8.38 367.43-11.43L367.43-11.43L367.43-11.43Q368.06-12.00 368.35-11.57L368.35-11.57L368.35-11.57Q368.35-11.43 368.35-11.25L368.35-11.25L368.35-11.25Q368.35-11.08 367.00-9.73L367.00-9.73L367.00-9.73Q365.65-8.38 363.70-6.71L363.70-6.71L363.70-6.71Q361.75-5.04 358.83-2.98L358.83-2.98L358.83-2.98Q352.80 1.28 346.73 1.28L346.73 1.28L346.73 1.28Q340.66 1.28 338.95-3.91ZM390.78-38.48L390.78-38.48L390.78-38.48Q393.06-38.48 393.06-36.92L393.06-36.92L393.06-36.92Q393.06-35.78 389.01-32.38L389.01-32.38L389.01-32.38Q387.09-30.81 385.74-29.43L385.74-29.43L385.74-29.43Q384.39-28.05 382.51-25.42L382.51-25.42L382.51-25.42Q380.63-22.79 379.25-20.27L379.25-20.27L379.25-20.27Q377.86-17.75 376.94-15.34L376.94-15.34L376.94-15.34Q374.95-10.51 376.66-9.73L376.66-9.73L376.66-9.73Q377.08-9.59 376.94-9.34L376.94-9.34L376.94-9.34Q376.80-9.09 376.37-9.30L376.37-9.30L376.37-9.30Q373.89-10.58 373.89-13.85L373.89-13.85L373.89-13.85Q373.89-14.63 374.10-15.55L374.10-15.55L374.10-15.55Q374.81-20.24 377.33-25.31L377.33-25.31L377.33-25.31Q379.85-30.39 382.05-32.87L382.05-32.87L382.05-32.87Q387.09-38.48 390.78-38.48ZM370.41 0.50L370.41 0.50L370.41 0.50Q369.56 0.50 368.88-0.07L368.88-0.07L368.88-0.07Q368.21-0.64 368.21-1.28L368.21-1.28L368.21-1.28Q368.21-3.41 369.41-4.69L369.41-4.69L369.41-4.69Q371.12-6.46 372.96-6.46L372.96-6.46L372.96-6.46Q373.74-6.46 374.42-5.93L374.42-5.93L374.42-5.93Q375.09-5.40 375.09-4.01L375.09-4.01L375.09-4.01Q375.09-2.63 373.64-1.07L373.64-1.07L373.64-1.07Q372.18 0.50 370.41 0.50Z" fill="url(#editing-shiny-gradient)"></path></g></g><g filter="url(#editing-shiny2)"><g transform="translate(53.066553473472595, 108.72500038146973)"><path d="M73.70-46.51L74.27-46.58L74.27-46.58Q74.98-46.58 74.98-46.22L74.98-46.22L74.98-46.22Q74.98-45.72 74.20-44.66L74.20-44.66L74.20-44.66Q66.67-34.79 57.97-20.66L57.97-20.66L57.97-20.66Q49.27-6.53 45.94 1.35L45.94 1.35L45.94 1.35Q45.37 2.56 45.01 1.92L45.01 1.92L45.01 1.92Q44.94 1.70 44.94 1.14L44.94 1.14L44.94 1.14Q44.94-1.78 52.65-14.77L52.65-14.77L52.65-14.77Q60.35-27.76 66.63-37.13L66.63-37.13L66.63-37.13Q72.92-46.51 73.70-46.51L73.70-46.51ZM45.23-39.90L45.87-39.97L45.87-39.97Q46.51-39.97 46.51-39.62L46.51-39.62L46.51-39.62Q46.51-39.12 45.72-38.06L45.72-38.06L45.72-38.06Q39.97-30.39 33.44-20.38L33.44-20.38L33.44-20.38Q36.78-20.16 40.04-19.53L40.04-19.53L40.04-19.53Q50.69-17.32 50.69-12.71L50.69-12.71L50.69-12.71Q50.69-12.43 50.55-12.43L50.55-12.43L50.55-12.43Q50.41-12.43 50.27-12.78L50.27-12.78L50.27-12.78Q49.56-14.56 42.46-15.19L42.46-15.19L42.46-15.19Q40.33-15.41 37.28-15.41L37.28-15.41L37.28-15.41Q34.22-15.41 29.96-14.98L29.96-14.98L29.96-14.98Q19.45 1.70 15.98 9.94L15.98 9.94L15.98 9.94Q15.62 10.72 15.30 10.72L15.30 10.72L15.30 10.72Q14.98 10.72 14.98 10.01L14.98 10.01L14.98 10.01Q14.98 6.46 27.97-14.84L27.97-14.84L27.97-14.84Q23.86-14.27 21.94-13.92L21.94-13.92L21.94-13.92Q9.44-11.72 5.47-7.10L5.47-7.10L5.47-7.10Q4.26-5.61 4.26-4.33L4.26-4.33L4.26-4.33Q4.26-3.05 5.68-1.92L5.68-1.92L5.68-1.92Q6.11-1.63 5.54-1.63L5.54-1.63L4.90-1.85L4.90-1.85Q1.85-4.19 1.85-7.31L1.85-7.31L1.85-7.31Q1.85-10.37 4.76-13.28L4.76-13.28L4.76-13.28Q9.02-17.54 19.31-19.38L19.31-19.38L19.31-19.38Q25.49-20.45 30.89-20.45L30.89-20.45L30.89-20.45Q31.17-20.45 31.52-20.45L31.52-20.45L31.52-20.45Q44.02-39.90 45.23-39.90L45.23-39.90ZM70.15-1.21L70.15-1.21L70.15-1.21Q65.39 1.21 61.84 1.21L61.84 1.21L61.84 1.21Q58.86 1.21 57.79-0.78L57.79-0.78L57.79-0.78Q57.23-1.78 57.23-3.05L57.23-3.05L57.23-3.05Q57.23-5.96 58.58-8.73L58.58-8.73L58.58-8.73Q57.65-7.81 56.80-7.24L56.80-7.24L56.80-7.24Q56.09-6.60 56.09-7.38L56.09-7.38L56.09-7.38Q56.09-7.88 57.33-8.95L57.33-8.95L57.33-8.95Q58.58-10.01 61.13-12.53L61.13-12.53L61.13-12.53Q63.69-15.05 65.18-16.33L65.18-16.33L65.18-16.33Q69.51-19.95 74.34-19.95L74.34-19.95L74.34-19.95Q76.11-19.95 77.96-19.03L77.96-19.03L77.96-19.03Q80.66-17.75 80.66-14.34L80.66-14.34L80.66-14.34Q80.66-10.22 76.54-5.89L76.54-5.89L76.54-5.89Q74.91-4.05 71.99-2.20L71.99-2.20L71.99-2.20Q77.82-3.12 84.35-9.23L84.35-9.23L84.35-9.23Q84.70-9.51 84.99-9.48L84.99-9.48L84.99-9.48Q85.27-9.44 85.27-9.16L85.27-9.16L85.27-9.16Q85.27-8.88 84.99-8.59L84.99-8.59L84.99-8.59Q77.18-1.21 70.43-1.21L70.43-1.21L70.43-1.21Q70.29-1.21 70.15-1.21ZM77.04-8.66L77.04-8.66L77.04-8.66Q78.81-11.36 78.81-13.24L78.81-13.24L78.81-13.24Q78.81-15.12 77.18-16.12L77.18-16.12L77.18-16.12Q76.25-16.90 75.05-16.90L75.05-16.90L75.05-16.90Q70.72-16.90 67.06-13.49L67.06-13.49L67.06-13.49Q63.40-10.08 62.20-6.25L62.20-6.25L62.20-6.25Q61.70-4.90 61.70-3.44L61.70-3.44L61.70-3.44Q61.70-1.99 62.80-1.38L62.80-1.38L62.80-1.38Q63.90-0.78 65.25-0.78L65.25-0.78L65.25-0.78Q66.60-0.78 69.15-2.13L69.15-2.13L69.15-2.13Q69.01-2.13 68.73-2.27L68.73-2.27L68.73-2.27Q67.88-2.70 67.88-3.41L67.88-3.41L67.88-3.41Q67.88-5.89 70.65-8.45L70.65-8.45L70.65-8.45Q72.63-10.22 74.69-10.22L74.69-10.22L74.69-10.22Q76.75-10.22 77.04-8.66ZM89.46-2.91L89.46-2.91L89.46-2.91Q89.46-0.99 91.38-0.99L91.38-0.99L91.38-0.99Q92.51-0.99 94.96-1.92L94.96-1.92L94.96-1.92Q97.41-2.84 101.32-5.96L101.32-5.96L101.32-5.96Q105.22-9.09 106.57-10.47L106.57-10.47L106.57-10.47Q107.92-11.86 108.20-11.82L108.20-11.82L108.20-11.82Q108.49-11.79 108.42-11.40L108.42-11.40L108.42-11.40Q108.35-11.01 108.06-10.72L108.06-10.72L108.06-10.72Q102.03-4.54 98.05-1.85L98.05-1.85L98.05-1.85Q94.08 0.85 90.67 0.85L90.67 0.85L90.67 0.85Q87.76 0.85 86.62-0.50L86.62-0.50L86.62-0.50Q85.48-1.85 85.48-3.62L85.48-3.62L85.48-3.62Q85.48-6.82 87.76-11.29L87.76-11.29L87.76-11.29Q83.64-6.89 83.64-8.45L83.64-8.45L83.64-8.45Q83.64-8.73 84.06-9.09L84.06-9.09L84.06-9.09Q87.40-11.79 91.24-16.90L91.24-16.90L91.24-16.90Q98.26-26.06 102.24-33.02L102.24-33.02L102.24-33.02Q102.95-34.36 102.95-35.00L102.95-35.00L102.95-35.00Q102.95-36.49 101.32-35.57L101.32-35.57L101.32-35.57Q99.47-34.65 99.33-34.86L99.33-34.86L99.33-34.86Q99.19-35.07 99.54-35.43L99.54-35.43L99.54-35.43Q101.25-36.71 104.23-37.84L104.23-37.84L104.23-37.84Q107.21-38.98 109.13-39.05L109.13-39.05L109.13-39.05Q112.11-39.05 112.11-37.20L112.11-37.20L112.11-37.20Q112.11-36.14 111.08-34.36L111.08-34.36L111.08-34.36Q110.05-32.59 105.19-27.30L105.19-27.30L105.19-27.30Q100.32-22.01 99.26-20.66L99.26-20.66L99.26-20.66Q91.95-11.08 89.96-5.40L89.96-5.40L89.96-5.40Q89.46-3.91 89.46-2.91ZM131.07-10.93L131.07-10.93L131.07-10.93Q130.29-10.01 129.47-8.95L129.47-8.95L129.47-8.95Q128.65-7.88 127.41-6.04L127.41-6.04L127.41-6.04Q126.17-4.19 126.17-2.91L126.17-2.91L126.17-2.91Q126.17-1.63 127.27-1.63L127.27-1.63L127.27-1.63Q128.37-1.63 130.85-2.98L130.85-2.98L130.85-2.98Q135.82-5.82 141.86-11.50L141.86-11.50L141.86-11.50Q142.57-12.21 142.78-11.72L142.78-11.72L142.78-11.72Q142.78-11.64 142.78-11.43L142.78-11.43L142.78-11.43Q142.78-11.22 142.50-10.93L142.50-10.93L142.50-10.93Q130.29 0.57 124.75 0.57L124.75 0.57L124.75 0.57Q123.11 0.57 122.01-0.53L122.01-0.53L122.01-0.53Q120.91-1.63 120.91-3.12L120.91-3.12L120.91-3.12Q120.91-4.62 122.19-7.67L122.19-7.67L122.19-7.67Q119.00-3.69 115.34-1.53L115.34-1.53L115.34-1.53Q111.68 0.64 109.62 0.64L109.62 0.64L109.62 0.64Q107.57 0.64 106.11-0.60L106.11-0.60L106.11-0.60Q104.65-1.85 104.65-3.69L104.65-3.69L104.65-3.69Q104.65-8.95 109.34-13.99L109.34-13.99L109.34-13.99Q112.89-17.75 118.14-19.31L118.14-19.31L118.14-19.31Q120.49-20.09 122.72-20.09L122.72-20.09L122.72-20.09Q124.96-20.09 127.05-18.85L127.05-18.85L127.05-18.85Q129.15-17.61 129.72-15.90L129.72-15.90L129.72-15.90Q131.85-15.90 132.77-14.34L132.77-14.34L132.77-14.34Q132.91-14.13 132.91-13.63L132.91-13.63L132.91-13.63Q132.91-13.14 132.38-12.50L132.38-12.50L132.38-12.50Q131.85-11.86 131.07-10.93ZM125.88-17.96L125.88-17.96L125.88-17.96Q124.39-17.96 122.33-17.04L122.33-17.04L122.33-17.04Q118.71-15.48 115.45-11.64L115.45-11.64L115.45-11.64Q110.26-5.54 110.26-2.70L110.26-2.70L110.26-2.70Q110.26-1.21 111.47-1.21L111.47-1.21L111.47-1.21Q112.46-1.21 114.77-2.49L114.77-2.49L114.77-2.49Q117.08-3.76 120.84-7.53L120.84-7.53L120.84-7.53Q121.06-7.74 122.48-9.09L122.48-9.09L122.48-9.09Q123.90-10.44 124.89-11.43L124.89-11.43L124.89-11.43Q128.23-14.91 128.23-16.44L128.23-16.44L128.23-16.44Q128.23-17.96 125.88-17.96ZM227.63 6.32L227.63 6.32L227.63 6.32Q227.77 6.39 227.77 6.60L227.77 6.60L227.77 6.60Q227.63 7.10 227.20 6.82L227.20 6.82L227.20 6.82Q221.02 2.49 221.02-5.89L221.02-5.89L221.02-5.89Q221.02-9.37 222.41-13.31L222.41-13.31L222.41-13.31Q223.79-17.25 227.34-22.79L227.34-22.79L227.34-22.79Q230.89-28.33 234.23-32.38L234.23-32.38L234.23-32.38Q237.57-36.42 240.65-39.94L240.65-39.94L240.65-39.94Q243.74-43.45 243.89-43.74L243.89-43.74L243.89-43.74Q244.74-45.01 245.02-43.45L245.02-43.45L245.02-43.45Q245.09-42.96 245.09-42.32L245.09-42.32L245.09-42.32Q245.09-41.68 244.74-41.18L244.74-41.18L244.74-41.18Q240.34-35.78 236.22-28.97L236.22-28.97L236.22-28.97Q229.33-17.47 226.35-8.02L226.35-8.02L226.35-8.02Q225.21-4.26 225.21-0.21L225.21-0.21L225.21-0.21Q225.21 3.83 227.63 6.32ZM168.55-18.53L168.55-18.53L168.55-18.53Q180.20-23.36 196.60-23.36L196.60-23.36L196.60-23.36Q204.69-23.36 212.79-20.80L212.79-20.80L212.79-20.80Q214.70-22.79 218.47-26.73L218.47-26.73L218.47-26.73Q222.23-30.67 224.43-32.94L224.43-32.94L224.43-32.94Q230.82-39.55 234.87-42.67L234.87-42.67L234.87-42.67Q241.68-48.00 247.36-48.00L247.36-48.00L247.36-48.00Q249.92-48.00 252.05-47.18L252.05-47.18L252.05-47.18Q254.18-46.36 254.61-45.90L254.61-45.90L254.61-45.90Q255.03-45.44 255.03-45.37L255.03-45.37L255.03-45.37Q255.03-45.30 254.89-45.12L254.89-45.12L254.89-45.12Q254.75-44.94 254.46-45.30L254.46-45.30L254.46-45.30Q253.12-46.58 249.21-46.58L249.21-46.58L249.21-46.58Q242.61-46.58 235.29-40.83L235.29-40.83L235.29-40.83Q230.04-36.57 226.56-33.05L226.56-33.05L226.56-33.05Q223.08-29.54 219.28-25.60L219.28-25.60L219.28-25.60Q215.49-21.66 214.14-20.31L214.14-20.31L214.14-20.31Q221.24-17.68 221.88-13.42L221.88-13.42L221.88-13.42Q221.95-12.99 221.84-12.85L221.84-12.85L221.84-12.85Q221.73-12.71 221.56-12.85L221.56-12.85L221.56-12.85Q221.38-12.99 221.31-13.28L221.31-13.28L221.31-13.28Q220.74-14.63 217.33-15.41L217.33-15.41L217.33-15.41Q214.28-16.12 210.30-16.47L210.30-16.47L210.30-16.47Q195.89-2.56 184.81 1.21L184.81 1.21L184.81 1.21Q178.78 3.34 173.38 3.34L173.38 3.34L173.38 3.34Q163.73 3.34 160.00 0.46L160.00 0.46L160.00 0.46Q156.27-2.41 156.27-5.89L156.27-5.89L156.27-5.89Q156.27-7.24 156.77-8.66L156.77-8.66L156.77-8.66Q158.90-14.48 168.55-18.53ZM204.13-16.76L204.13-16.76L204.13-16.76Q194.68-16.76 184.25-14.77L184.25-14.77L184.25-14.77Q168.20-11.93 163.37-6.32L163.37-6.32L163.37-6.32Q161.88-4.54 161.88-2.98L161.88-2.98L161.88-2.98Q161.88-1.14 163.87 0.36L163.87 0.36L163.87 0.36Q166.21 2.13 172.00 2.13L172.00 2.13L172.00 2.13Q177.78 2.13 184.53 0.21L184.53 0.21L184.53 0.21Q194.61-2.91 208.53-16.61L208.53-16.61L208.53-16.61Q206.33-16.76 204.13-16.76ZM264.40-15.83L264.40-15.83L264.40-15.83Q264.40-13.21 259.93-7.17L259.93-7.17L259.93-7.17Q257.23-3.55 257.23-2.70L257.23-2.70L257.23-2.70Q257.23-1.85 258.12-1.85L258.12-1.85L258.12-1.85Q259.01-1.85 260.64-2.91L260.64-2.91L260.64-2.91Q264.69-5.68 268.74-9.59L268.74-9.59L268.74-9.59Q269.30-10.15 269.52-9.87L269.52-9.87L269.52-9.87Q269.73-9.59 269.73-9.44L269.73-9.44L269.73-9.44Q269.73-9.30 268.17-7.81L268.17-7.81L268.17-7.81Q266.61-6.32 264.72-4.69L264.72-4.69L264.72-4.69Q262.84-3.05 260.00-1.31L260.00-1.31L260.00-1.31Q257.16 0.43 255.32 0.43L255.32 0.43L255.32 0.43Q251.48 0.43 251.48-2.98L251.48-2.98L251.48-2.98Q251.48-4.19 251.91-5.82L251.91-5.82L251.91-5.82Q252.83-8.59 259.93-16.54L259.93-16.54L259.93-16.54Q260.85-17.54 260.85-18.11L260.85-18.11L260.85-18.11Q260.85-18.67 259.43-18.67L259.43-18.67L259.43-18.67Q258.01-18.67 254.96-16.19L254.96-16.19L254.96-16.19Q253.90-15.34 252.33-13.67L252.33-13.67L252.33-13.67Q250.77-12.00 248.68-8.31L248.68-8.31L248.68-8.31Q246.58-4.62 245.59-1.78L245.59-1.78L245.59-1.78Q245.16-0.50 243.89-0.50L243.89-0.50L243.89-0.50Q243.60-0.50 243.18-0.57L243.18-0.57L243.18-0.57Q241.83-0.92 242.11-1.85L242.11-1.85L242.11-1.85Q247.65-11.72 248.71-14.20L248.71-14.20L248.71-14.20Q249.78-16.69 249.78-17.75L249.78-17.75L249.78-17.75Q249.78-18.82 248.93-18.82L248.93-18.82L248.93-18.82Q245.16-18.82 238.13-6.53L238.13-6.53L238.13-6.53Q235.58-2.56 234.02-0.85L234.02-0.85L234.02-0.85Q232.45 0.85 231.18 0.85L231.18 0.85L231.18 0.85Q231.03 0.85 230.89 0.85L230.89 0.85L230.89 0.85Q229.05 0.85 227.27-0.64L227.27-0.64L227.27-0.64Q227.70-1.28 229.33-3.41L229.33-3.41L229.33-3.41Q232.95-7.81 235.65-11.93L235.65-11.93L235.65-11.93Q232.60-8.88 230.47-7.17L230.47-7.17L230.47-7.17Q229.76-6.60 229.65-7.10L229.65-7.10L229.65-7.10Q229.54-7.60 229.97-7.99L229.97-7.99L229.97-7.99Q230.40-8.38 231.39-9.27L231.39-9.27L231.39-9.27Q232.38-10.15 232.70-10.44L232.70-10.44L232.70-10.44Q233.02-10.72 233.91-11.54L233.91-11.54L233.91-11.54Q234.80-12.35 235.22-12.85L235.22-12.85L235.22-12.85Q237.21-15.19 238.13-16.83L238.13-16.83L238.13-16.83Q238.49-17.68 238.45-18.50L238.45-18.50L238.45-18.50Q238.42-19.31 238.10-19.56L238.10-19.56L238.10-19.56Q237.78-19.81 237.85-20.16L237.85-20.16L237.85-20.16Q237.85-20.73 238.42-20.73L238.42-20.73L238.42-20.73Q238.70-20.73 239.06-20.59L239.06-20.59L239.06-20.59Q241.26-19.60 241.26-16.26L241.26-16.26L241.26-16.26Q241.26-14.27 240.48-11.93L240.48-11.93L240.48-11.93Q241.90-14.13 243.53-16.26L243.53-16.26L243.53-16.26Q246.44-20.02 249.35-20.02L249.35-20.02L249.35-20.02Q251.34-20.02 251.34-17.75L251.34-17.75L251.34-17.75Q251.34-15.62 248.36-10.15L248.36-10.15L248.36-10.15Q251.34-13.99 252.97-15.76L252.97-15.76L252.97-15.76Q256.74-19.67 260.22-19.67L260.22-19.67L260.22-19.67Q263.91-19.67 264.40-16.47L264.40-16.47L264.40-16.47Q264.40-16.12 264.40-15.83ZM282.44-21.66L282.44-21.66L282.44-21.66Q281.66-22.29 281.80-23.50L281.80-23.50L281.80-23.50Q281.94-24.71 283.08-26.06L283.08-26.06L283.08-26.06Q284.21-27.41 286.13-27.41L286.13-27.41L286.13-27.41Q286.70-27.41 287.34-26.87L287.34-26.87L287.34-26.87Q287.98-26.34 287.83-25.10L287.83-25.10L287.83-25.10Q287.69-23.86 286.70-22.76L286.70-22.76L286.70-22.76Q285.70-21.66 284.46-21.34L284.46-21.34L284.46-21.34Q283.22-21.02 282.44-21.66ZM281.52-17.89L281.52-17.89L281.52-17.89Q278.60-14.91 276.65-10.33L276.65-10.33L276.65-10.33Q274.70-5.75 274.70-3.91L274.70-3.91L274.70-3.91Q274.70-2.06 276.15-2.06L276.15-2.06L276.15-2.06Q277.61-2.06 280.98-4.19L280.98-4.19L280.98-4.19Q284.36-6.32 288.69-10.22L288.69-10.22L288.69-10.22Q289.61-11.08 289.61-10.01L289.61-10.01L289.61-10.01Q289.61-9.87 289.47-9.73L289.47-9.73L289.47-9.73Q286.06-6.75 283.72-4.83L283.72-4.83L283.72-4.83Q281.37-2.91 278.14-1.17L278.14-1.17L278.14-1.17Q274.91 0.57 272.85 0.57L272.85 0.57L272.85 0.57Q270.30 0.57 269.05-0.57L269.05-0.57L269.05-0.57Q267.81-1.70 267.81-3.05L267.81-3.05L267.81-3.05Q267.81-5.61 268.74-7.10L268.74-7.10L268.74-7.10Q269.66-8.59 271.86-11.22L271.86-11.22L271.86-11.22Q271.08-10.58 269.41-9.09L269.41-9.09L269.41-9.09Q267.74-7.60 267.10-7.10L267.10-7.10L267.10-7.10Q266.46-6.60 266.46-7.38L266.46-7.38L266.46-7.38Q266.46-7.88 267.60-8.80L267.60-8.80L267.60-8.80Q268.74-9.73 272.53-13.49L272.53-13.49L272.53-13.49Q276.33-17.25 277.72-17.96L277.72-17.96L277.72-17.96Q279.10-18.67 279.99-18.67L279.99-18.67L279.99-18.67Q280.88-18.67 281.30-18.42L281.30-18.42L281.30-18.42Q281.73-18.18 281.52-17.89ZM280.81 19.45L280.81 19.45L280.81 19.45Q274.63 19.45 270.55 16.76L270.55 16.76L270.55 16.76Q266.46 14.06 266.46 9.09L266.46 9.09L266.46 9.09Q266.46 8.80 266.68 8.80L266.68 8.80L266.68 8.80Q267.17 8.80 267.32 9.37L267.32 9.37L267.32 9.37Q267.95 12.99 270.79 15.62L270.79 15.62L270.79 15.62Q272.07 16.83 274.31 17.61L274.31 17.61L274.31 17.61Q276.55 18.39 278.04 18.39L278.04 18.39L278.04 18.39Q279.53 18.39 279.95 18.39L279.95 18.39L279.95 18.39Q287.83 17.96 293.73 10.44L293.73 10.44L293.73 10.44Q296.50 6.89 298.63 3.37L298.63 3.37L298.63 3.37Q300.76-0.14 303.24-4.47L303.24-4.47L303.24-4.47Q305.73-8.80 307.43-11.08L307.43-11.08L307.43-11.08Q305.23-8.59 301.89-5.40L301.89-5.40L301.89-5.40Q298.56-2.20 296.14-0.78L296.14-0.78L296.14-0.78Q293.73 0.64 291.67 0.64L291.67 0.64L291.67 0.64Q289.61 0.64 288.15-0.60L288.15-0.60L288.15-0.60Q286.70-1.85 286.70-3.69L286.70-3.69L286.70-3.69Q286.70-8.95 291.38-13.99L291.38-13.99L291.38-13.99Q294.93-17.75 300.19-19.31L300.19-19.31L300.19-19.31Q302.53-20.09 304.77-20.09L304.77-20.09L304.77-20.09Q307.00-20.09 309.10-18.85L309.10-18.85L309.10-18.85Q311.19-17.61 311.76-15.90L311.76-15.90L311.76-15.90Q312.90-15.90 314.25-14.95L314.25-14.95L314.25-14.95Q315.60-13.99 315.60-13.56L315.60-13.56L315.60-13.56Q315.60-13.14 315.03-12.85L315.03-12.85L315.03-12.85Q312.76-11.72 307.86-2.91L307.86-2.91L307.86-2.91Q303.10 5.54 296.71 12.21L296.71 12.21L296.71 12.21Q293.51 15.55 289.29 17.50L289.29 17.50L289.29 17.50Q285.07 19.45 280.81 19.45ZM291.81-2.84L291.81-2.84L291.81-2.84Q291.81-1.21 293.51-1.21L293.51-1.21L293.51-1.21Q294.86-1.21 296.85-2.70L296.85-2.70L296.85-2.70Q301.68-5.89 306.93-12.00L306.93-12.00L306.93-12.00Q309.35-14.77 309.35-16.33L309.35-16.33L309.35-16.33Q309.35-16.90 308.96-17.36L308.96-17.36L308.96-17.36Q308.57-17.82 307.29-17.82L307.29-17.82L307.29-17.82Q306.01-17.82 303.21-16.33L303.21-16.33L303.21-16.33Q300.40-14.84 297.45-11.82L297.45-11.82L297.45-11.82Q294.51-8.80 293.16-6.43L293.16-6.43L293.16-6.43Q291.81-4.05 291.81-2.84ZM329.09-1.21L329.09-1.21L329.09-1.21Q324.33 1.21 320.78 1.21L320.78 1.21L320.78 1.21Q317.80 1.21 316.73-0.78L316.73-0.78L316.73-0.78Q316.16-1.78 316.16-3.05L316.16-3.05L316.16-3.05Q316.16-5.96 317.51-8.73L317.51-8.73L317.51-8.73Q316.59-7.81 315.74-7.24L315.74-7.24L315.74-7.24Q315.03-6.60 315.03-7.38L315.03-7.38L315.03-7.38Q315.03-7.88 316.27-8.95L316.27-8.95L316.27-8.95Q317.51-10.01 320.07-12.53L320.07-12.53L320.07-12.53Q322.62-15.05 324.12-16.33L324.12-16.33L324.12-16.33Q328.45-19.95 333.27-19.95L333.27-19.95L333.27-19.95Q335.05-19.95 336.90-19.03L336.90-19.03L336.90-19.03Q339.59-17.75 339.59-14.34L339.59-14.34L339.59-14.34Q339.59-10.22 335.48-5.89L335.48-5.89L335.48-5.89Q333.84-4.05 330.93-2.20L330.93-2.20L330.93-2.20Q336.75-3.12 343.29-9.23L343.29-9.23L343.29-9.23Q343.64-9.51 343.92-9.48L343.92-9.48L343.92-9.48Q344.21-9.44 344.21-9.16L344.21-9.16L344.21-9.16Q344.21-8.88 343.92-8.59L343.92-8.59L343.92-8.59Q336.11-1.21 329.37-1.21L329.37-1.21L329.37-1.21Q329.23-1.21 329.09-1.21ZM335.97-8.66L335.97-8.66L335.97-8.66Q337.75-11.36 337.75-13.24L337.75-13.24L337.75-13.24Q337.75-15.12 336.11-16.12L336.11-16.12L336.11-16.12Q335.19-16.90 333.98-16.90L333.98-16.90L333.98-16.90Q329.65-16.90 326.00-13.49L326.00-13.49L326.00-13.49Q322.34-10.08 321.13-6.25L321.13-6.25L321.13-6.25Q320.64-4.90 320.64-3.44L320.64-3.44L320.64-3.44Q320.64-1.99 321.74-1.38L321.74-1.38L321.74-1.38Q322.84-0.78 324.19-0.78L324.19-0.78L324.19-0.78Q325.54-0.78 328.09-2.13L328.09-2.13L328.09-2.13Q327.95-2.13 327.67-2.27L327.67-2.27L327.67-2.27Q326.81-2.70 326.81-3.41L326.81-3.41L326.81-3.41Q326.81-5.89 329.58-8.45L329.58-8.45L329.58-8.45Q331.57-10.22 333.63-10.22L333.63-10.22L333.63-10.22Q335.69-10.22 335.97-8.66ZM338.95-3.91L338.95-3.91L338.95-3.91Q338.88-3.98 338.88-4.12L338.88-4.12L338.88-4.12Q338.88-4.26 339.13-4.26L339.13-4.26L339.13-4.26Q339.38-4.26 339.45-3.98L339.45-3.98L339.45-3.98Q340.73-1.14 343.64-1.14L343.64-1.14L343.64-1.14Q347.26-1.14 349.96-4.69L349.96-4.69L349.96-4.69Q351.95-7.31 353.47-10.19L353.47-10.19L353.47-10.19Q355.00-13.06 356.03-14.77L356.03-14.77L356.03-14.77Q357.06-16.47 359.22-18.60L359.22-18.60L359.22-18.60Q361.39-20.73 363.17-21.23L363.17-21.23L363.17-21.23Q362.74-21.44 361.75-21.44L361.75-21.44L361.75-21.44Q360.75-21.44 358.02-19.99L358.02-19.99L358.02-19.99Q355.28-18.53 352.59-16.29L352.59-16.29L352.59-16.29Q349.89-14.06 346.76-11.22L346.76-11.22L346.76-11.22Q343.64-8.38 343.00-7.88L343.00-7.88L343.00-7.88Q342.36-7.38 342.22-7.88L342.22-7.88L342.22-7.88Q342.08-8.38 342.58-8.80L342.58-8.80L342.58-8.80Q344.42-10.37 347.90-13.67L347.90-13.67L347.90-13.67Q351.38-16.97 353.19-18.50L353.19-18.50L353.19-18.50Q355.00-20.02 357.27-21.12L357.27-21.12L357.27-21.12Q359.54-22.22 360.68-22.22L360.68-22.22L360.68-22.22Q363.52-22.22 364.16-21.23L364.16-21.23L364.16-21.23Q362.31-20.45 361.14-17.11L361.14-17.11L361.14-17.11Q359.97-13.77 358.51-9.37L358.51-9.37L358.51-9.37Q357.06-4.97 354.86-2.49L354.86-2.49L354.86-2.49Q356.70-3.20 360.57-5.79L360.57-5.79L360.57-5.79Q364.44-8.38 367.43-11.43L367.43-11.43L367.43-11.43Q368.06-12.00 368.35-11.57L368.35-11.57L368.35-11.57Q368.35-11.43 368.35-11.25L368.35-11.25L368.35-11.25Q368.35-11.08 367.00-9.73L367.00-9.73L367.00-9.73Q365.65-8.38 363.70-6.71L363.70-6.71L363.70-6.71Q361.75-5.04 358.83-2.98L358.83-2.98L358.83-2.98Q352.80 1.28 346.73 1.28L346.73 1.28L346.73 1.28Q340.66 1.28 338.95-3.91ZM390.78-38.48L390.78-38.48L390.78-38.48Q393.06-38.48 393.06-36.92L393.06-36.92L393.06-36.92Q393.06-35.78 389.01-32.38L389.01-32.38L389.01-32.38Q387.09-30.81 385.74-29.43L385.74-29.43L385.74-29.43Q384.39-28.05 382.51-25.42L382.51-25.42L382.51-25.42Q380.63-22.79 379.25-20.27L379.25-20.27L379.25-20.27Q377.86-17.75 376.94-15.34L376.94-15.34L376.94-15.34Q374.95-10.51 376.66-9.73L376.66-9.73L376.66-9.73Q377.08-9.59 376.94-9.34L376.94-9.34L376.94-9.34Q376.80-9.09 376.37-9.30L376.37-9.30L376.37-9.30Q373.89-10.58 373.89-13.85L373.89-13.85L373.89-13.85Q373.89-14.63 374.10-15.55L374.10-15.55L374.10-15.55Q374.81-20.24 377.33-25.31L377.33-25.31L377.33-25.31Q379.85-30.39 382.05-32.87L382.05-32.87L382.05-32.87Q387.09-38.48 390.78-38.48ZM370.41 0.50L370.41 0.50L370.41 0.50Q369.56 0.50 368.88-0.07L368.88-0.07L368.88-0.07Q368.21-0.64 368.21-1.28L368.21-1.28L368.21-1.28Q368.21-3.41 369.41-4.69L369.41-4.69L369.41-4.69Q371.12-6.46 372.96-6.46L372.96-6.46L372.96-6.46Q373.74-6.46 374.42-5.93L374.42-5.93L374.42-5.93Q375.09-5.40 375.09-4.01L375.09-4.01L375.09-4.01Q375.09-2.63 373.64-1.07L373.64-1.07L373.64-1.07Q372.18 0.50 370.41 0.50Z" fill="url(#editing-shiny-gradient2)"></path></g></g><style>text {
  font-size: 64px;
  font-family: Arial Black;
  dominant-baseline: central;
  text-anchor: middle;
}</style></svg>